<?xml version="1.0" standalone="no"?>
<!DOCTYPE svg PUBLIC "-//W3C//DTD SVG 20010904//EN"
 "http://www.w3.org/TR/2001/REC-SVG-20010904/DTD/svg10.dtd">
<svg version="1.0" xmlns="http://www.w3.org/2000/svg"
 width="5692.000000pt" height="3200.000000pt" viewBox="0 0 5692.000000 3200.000000"
 preserveAspectRatio="xMidYMid meet">

<g transform="translate(0.000000,3200.000000) scale(0.100000,-0.100000)"
fill="#000000" stroke="none">
<path d="M20448 25763 l-6338 -3746 0 -2325 0 -2324 23 4 c12 3 2167 530 4788
1173 3761 922 4773 1166 4801 1161 50 -9 100 -45 120 -86 17 -33 18 -126 18
-1508 0 -1237 -2 -1478 -14 -1506 -15 -37 -67 -81 -106 -90 -22 -6 -9602
-1196 -9622 -1196 -4 0 -8 -335 -8 -745 l0 -745 6345 0 6345 0 0 4690 c0 2615
-4 4690 -9 4690 -4 0 -2154 -776 -4777 -1723 -2623 -948 -4782 -1727 -4797
-1731 -71 -17 -165 43 -186 119 -16 57 -15 2079 0 2141 8 32 23 54 48 75 20
17 2144 1031 4876 2329 l4840 2299 3 1395 c1 768 -1 1396 -5 1396 -5 0 -2860
-1686 -6345 -3747z"/>
<path d="M27132 28116 l3 -1397 605 -288 c333 -159 1566 -746 2740 -1306 1174
-559 2149 -1026 2167 -1036 17 -11 41 -39 52 -63 l21 -42 0 -5077 0 -5077
1090 0 1090 0 0 4468 c0 2901 4 4479 10 4502 20 71 113 129 185 116 51 -10
2565 -1211 2607 -1246 23 -19 41 -45 48 -68 7 -25 10 -1269 10 -3904 l0 -3868
990 0 990 0 -2 4106 -3 4106 -6290 3730 c-3459 2052 -6295 3733 -6302 3735
-11 4 -13 -257 -11 -1391z"/>
<path d="M25323 25682 l-1463 -696 0 -1243 c0 -684 1 -1243 3 -1243 1 1 661
234 1467 519 l1465 519 3 1421 c1 782 -1 1421 -5 1420 -5 -1 -666 -314 -1470
-697z"/>
<path d="M27132 24959 l3 -1421 1305 -469 c718 -258 1313 -472 1323 -475 16
-5 17 58 15 1261 l-3 1267 -1320 629 c-726 346 -1321 629 -1322 629 -2 0 -2
-640 -1 -1421z"/>
<path d="M27130 18523 l0 -4693 1325 0 1325 0 0 4218 0 4217 -1325 476 -1325
476 0 -4694z"/>
<path d="M26485 11869 c-227 -31 -341 -95 -409 -229 -43 -86 -59 -182 -54
-318 3 -95 7 -115 35 -174 18 -38 43 -83 57 -101 30 -39 32 -47 10 -47 -8 0
-49 -14 -90 -31 -87 -36 -165 -102 -198 -168 -89 -177 -81 -625 15 -813 27
-53 94 -124 143 -153 76 -44 202 -75 386 -95 127 -14 505 -14 608 0 192 26
336 82 433 169 l53 48 151 -119 c82 -65 153 -117 156 -115 4 1 53 57 109 125
87 106 99 125 86 135 -8 7 -96 75 -196 152 l-180 140 5 75 c6 101 8 185 6 308
l-1 102 -180 0 -180 0 0 -95 c0 -61 -4 -95 -11 -95 -6 0 -185 137 -397 305
-255 202 -398 321 -419 351 -36 50 -47 105 -41 194 9 119 49 140 283 147 175
6 292 -7 324 -35 32 -29 43 -82 48 -229 l6 -143 177 0 178 0 7 76 c9 93 -1
244 -21 321 -42 163 -149 256 -344 298 -90 20 -448 29 -555 14z m399 -1454
c162 -126 295 -235 295 -242 2 -24 -76 -74 -151 -98 -201 -64 -751 -49 -830
21 -43 40 -74 227 -64 392 12 197 28 222 178 271 l92 29 92 -71 c51 -40 225
-175 388 -302z"/>
<path d="M8421 11229 c-263 -29 -386 -111 -444 -294 -21 -67 -22 -87 -22 -410
1 -375 11 -474 62 -588 61 -137 194 -189 518 -203 265 -12 499 23 602 89 105
67 147 216 159 572 11 290 -18 542 -75 652 -43 86 -137 140 -291 169 -95 18
-399 26 -509 13z m486 -263 c71 -23 90 -59 104 -203 20 -186 -1 -638 -32 -714
-22 -56 -128 -73 -404 -66 -212 5 -278 16 -300 51 -25 39 -36 139 -42 366 -6
231 6 435 29 507 23 69 89 83 383 79 164 -2 221 -7 262 -20z"/>
<path d="M30995 11229 c-247 -22 -387 -94 -451 -233 -56 -123 -59 -736 -4
-951 46 -180 121 -250 310 -290 153 -32 517 -29 684 7 189 40 255 160 256 466
l0 92 -144 0 -144 0 -3 -129 c-4 -144 -17 -176 -75 -194 -50 -15 -380 -21
-454 -8 -95 17 -125 38 -139 98 -31 133 -43 666 -17 776 25 107 51 117 336
124 311 7 321 1 328 -189 l4 -108 144 0 144 0 0 89 c0 156 -33 279 -91 341
-96 103 -327 140 -684 109z"/>
<path d="M33053 11230 c-153 -16 -276 -58 -344 -118 -38 -34 -90 -122 -109
-187 -19 -64 -30 -382 -20 -590 20 -427 81 -528 355 -581 128 -26 502 -26 630
0 178 35 264 96 303 217 41 125 47 190 47 524 0 359 -8 426 -68 545 -51 103
-133 151 -310 180 -86 14 -385 21 -484 10z m475 -260 c104 -30 116 -90 109
-515 -5 -309 -14 -392 -44 -426 -27 -31 -95 -41 -308 -46 -222 -5 -337 8 -375
42 -32 29 -43 121 -47 397 -5 270 6 446 30 498 27 56 109 70 382 65 126 -2
227 -8 253 -15z"/>
<path d="M37445 11230 c-156 -18 -265 -66 -316 -138 -53 -76 -64 -124 -64
-287 0 -141 2 -153 26 -205 78 -166 184 -214 509 -230 300 -15 339 -22 359
-66 14 -32 14 -182 0 -241 -18 -69 -42 -76 -275 -81 -203 -4 -290 6 -318 36
-17 20 -35 127 -36 210 l0 52 -143 0 -143 0 3 -97 c10 -323 91 -412 406 -444
129 -13 382 -5 498 15 228 41 302 148 302 436 1 128 -13 202 -51 272 -53 101
-158 138 -440 158 -210 15 -350 30 -377 40 -34 13 -48 67 -43 170 7 141 26
152 274 158 200 5 276 -6 301 -44 10 -16 17 -56 21 -114 l5 -90 143 0 144 0 0
68 c0 152 -36 268 -101 327 -47 42 -92 62 -184 81 -87 17 -392 26 -500 14z"/>
<path d="M45900 11230 c-187 -17 -304 -56 -384 -130 -97 -90 -116 -178 -116
-561 0 -503 48 -664 222 -744 107 -49 182 -59 433 -59 529 1 625 71 625 453
l0 131 -142 0 -143 0 0 -123 c-1 -208 -8 -212 -320 -212 -222 0 -288 9 -321
46 -30 33 -44 135 -54 402 -14 363 3 497 65 525 73 34 496 43 557 13 37 -19
49 -57 55 -178 l6 -103 145 0 145 0 -7 119 c-16 265 -79 358 -278 406 -77 19
-354 27 -488 15z"/>
<path d="M49875 11230 c-271 -31 -394 -114 -452 -305 -16 -53 -18 -100 -18
-400 0 -375 11 -473 62 -588 61 -137 195 -189 518 -203 175 -8 369 7 477 37
198 54 253 155 279 514 13 183 6 434 -16 572 -38 236 -116 316 -345 359 -94
18 -399 26 -505 14z m483 -264 c49 -16 56 -22 74 -64 31 -69 43 -309 29 -572
-12 -236 -26 -301 -69 -319 -53 -22 -149 -31 -327 -31 -187 0 -305 16 -334 44
-28 29 -42 138 -48 376 -6 240 6 433 30 507 22 69 89 83 382 79 165 -2 221 -7
263 -20z"/>
<path d="M1800 10485 l0 -735 140 0 140 0 0 735 0 735 -140 0 -140 0 0 -735z"/>
<path d="M3050 10485 l0 -735 145 0 145 0 2 532 3 533 345 -533 345 -532 187
0 188 0 0 735 0 735 -145 0 -145 0 0 -530 c0 -291 -3 -530 -7 -530 -7 0 -181
267 -559 857 l-129 202 -187 1 -188 0 0 -735z"/>
<path d="M5370 10485 l0 -735 145 0 145 0 0 488 c0 313 4 482 10 472 5 -8 103
-228 217 -488 l207 -473 129 3 129 3 212 488 211 488 3 -490 2 -491 145 0 145
0 0 735 0 735 -197 0 -198 0 -225 -525 c-124 -289 -228 -525 -231 -525 -4 0
-14 19 -23 43 -9 23 -110 258 -224 522 l-209 480 -196 3 -197 2 0 -735z"/>
<path d="M10170 10485 l0 -736 473 3 c412 3 478 6 522 21 154 51 226 160 241
365 11 155 -25 272 -108 352 l-42 40 27 27 c49 52 71 118 75 233 8 190 -30
306 -120 367 -81 54 -103 56 -605 60 l-463 4 0 -736z m840 482 c40 -11 47 -17
58 -52 19 -55 12 -204 -11 -238 -28 -42 -78 -50 -347 -51 l-245 -1 -3 165 c-1
90 0 170 2 177 7 17 479 17 546 0z m0 -598 c36 -5 73 -18 82 -27 37 -36 42
-238 9 -301 -22 -40 -70 -46 -361 -46 l-275 0 -3 180 c-1 98 0 185 2 192 7 16
447 18 546 2z"/>
<path d="M12320 10485 l0 -735 145 0 145 0 0 735 0 735 -145 0 -145 0 0 -735z"/>
<path d="M13580 10485 l0 -735 515 0 515 0 0 125 0 125 -370 0 -370 0 0 610 0
610 -145 0 -145 0 0 -735z"/>
<path d="M15440 10485 l0 -735 145 0 145 0 0 735 0 735 -145 0 -145 0 0 -735z"/>
<path d="M17107 11208 c-33 -84 -551 -1428 -554 -1440 -5 -17 7 -18 148 -18
l154 0 209 550 c115 303 212 547 216 543 4 -4 102 -252 216 -550 l209 -543
154 0 c142 0 153 1 147 18 -4 9 -134 340 -289 735 l-282 717 -161 0 c-120 0
-163 -3 -167 -12z"/>
<path d="M18830 10485 l0 -735 140 0 140 0 2 273 3 272 272 0 c259 0 273 -1
300 -21 51 -38 62 -94 63 -321 l0 -203 146 0 146 0 -4 248 c-5 275 -12 308
-73 379 l-34 40 34 33 c48 47 73 114 86 228 26 244 -35 417 -173 488 -98 50
-139 54 -610 54 l-438 0 0 -735z m882 476 c42 -22 53 -62 53 -203 0 -208 -5
-211 -385 -212 l-265 -1 -3 205 c-1 112 0 211 3 218 7 19 557 13 597 -7z"/>
<path d="M20980 10485 l0 -735 145 0 145 0 0 735 0 735 -145 0 -145 0 0 -735z"/>
<path d="M22373 10488 l-282 -733 151 -3 c83 -1 153 0 156 2 2 3 97 247 209
543 113 296 208 541 212 546 4 4 101 -237 216 -535 114 -299 211 -546 215
-551 3 -4 74 -6 156 -5 l150 3 -287 730 -287 730 -163 3 -164 2 -282 -732z"/>
<path d="M34800 10485 l0 -735 145 0 145 0 2 531 3 531 344 -531 343 -531 184
0 184 0 0 735 0 735 -145 0 -145 0 -2 -531 -3 -531 -340 528 -341 529 -187 3
-187 2 0 -735z"/>
<path d="M39010 11095 l0 -125 233 -2 232 -3 3 -607 2 -608 145 0 145 0 2 608
3 607 228 3 227 2 0 125 0 125 -610 0 -610 0 0 -125z"/>
<path d="M41070 10485 l0 -735 145 0 145 0 0 275 0 276 269 -3 c372 -4 354 12
359 -325 l3 -223 145 0 146 0 -4 253 c-3 238 -4 255 -26 302 -13 28 -37 64
-53 81 l-31 32 31 21 c102 73 136 401 60 578 -41 95 -144 169 -269 193 -30 6
-240 10 -486 10 l-434 0 0 -735z m850 484 c64 -14 76 -32 91 -134 13 -98 4
-185 -24 -227 -38 -54 -73 -61 -364 -66 l-263 -4 0 221 0 221 255 0 c146 0
276 -5 305 -11z"/>
<path d="M43232 10623 c3 -596 3 -598 26 -654 32 -80 88 -140 161 -173 105
-47 193 -59 436 -60 319 0 451 29 535 120 47 52 74 109 89 190 7 36 11 265 11
616 l0 558 -145 0 -144 0 -3 -572 c-3 -651 0 -626 -81 -650 -60 -18 -468 -18
-520 0 -74 27 -72 6 -75 650 l-3 572 -145 0 -145 0 3 -597z"/>
<path d="M47430 11095 l0 -125 233 -2 232 -3 3 -607 2 -608 145 0 145 0 0 610
0 610 230 0 230 0 0 125 0 125 -610 0 -610 0 0 -125z"/>
<path d="M51620 10485 l0 -735 145 0 145 0 2 273 3 272 270 0 c374 0 357 15
363 -327 l4 -218 140 0 139 0 -3 263 c-3 261 -3 262 -29 312 -15 28 -36 59
-48 69 l-22 20 35 35 c67 70 87 146 87 326 0 219 -51 329 -182 396 -88 45
-138 49 -606 49 l-443 0 0 -735z m897 469 c37 -28 51 -80 52 -191 1 -109 -17
-166 -59 -188 -50 -26 -162 -36 -380 -33 l-215 3 -3 205 c-1 112 0 211 3 218
4 11 58 13 289 10 271 -3 286 -4 313 -24z"/>
<path d="M54192 11193 c-5 -16 -132 -344 -281 -730 -149 -386 -271 -705 -271
-708 0 -3 69 -5 153 -5 l153 0 209 550 c115 302 211 547 215 545 3 -2 100
-249 215 -549 l210 -546 154 0 c142 0 153 1 147 18 -4 9 -133 340 -288 735
l-282 717 -162 0 -162 0 -10 -27z"/>
<path d="M35255 7884 c-432 -44 -730 -121 -1075 -278 -610 -278 -1073 -714
-1355 -1276 -205 -408 -289 -826 -264 -1314 52 -1038 668 -1883 1669 -2290
514 -208 1111 -283 1755 -220 681 67 1310 303 1875 704 l120 85 0 1098 0 1097
-1235 0 -1235 0 0 -395 0 -395 743 -2 742 -3 3 -492 2 -491 -67 -43 c-245
-155 -591 -278 -928 -331 -189 -29 -592 -32 -760 -5 -642 103 -1160 459 -1414
972 -191 383 -250 844 -165 1265 39 187 135 426 242 598 228 366 609 661 1027
795 217 70 307 82 605 82 283 0 385 -11 600 -61 337 -78 596 -203 941 -452
l56 -41 289 311 c159 171 304 328 322 349 l32 37 -87 63 c-482 348 -969 536
-1593 615 -119 15 -744 28 -845 18z"/>
<path d="M3665 7870 c-806 -68 -1429 -466 -1640 -1050 -47 -131 -65 -234 -72
-405 -13 -341 51 -594 208 -820 254 -368 775 -612 1729 -810 702 -145 1061
-291 1214 -491 92 -121 120 -333 65 -498 -78 -230 -319 -394 -680 -463 -133
-25 -543 -25 -714 0 -242 36 -439 91 -645 179 -212 91 -460 233 -665 383 -62
45 -117 85 -122 88 -10 6 -606 -626 -610 -647 -4 -20 240 -196 427 -308 584
-351 1249 -528 1979 -528 932 1 1613 321 1910 899 109 213 151 397 151 665 0
262 -43 450 -143 624 -259 452 -701 683 -1785 932 -742 171 -1025 278 -1188
451 -86 93 -125 202 -125 359 -1 117 24 202 82 289 189 284 623 403 1183 325
345 -48 754 -206 1128 -437 57 -35 108 -66 115 -70 7 -5 110 118 282 337 149
190 271 347 271 349 0 7 -237 160 -325 209 -424 239 -837 371 -1320 423 -174
19 -563 27 -710 15z"/>
<path d="M8305 5448 c-637 -1316 -1212 -2502 -1276 -2635 l-118 -243 522 0
522 0 980 2084 c539 1146 983 2082 986 2081 3 -2 446 -940 985 -2085 l979
-2080 537 0 537 0 -49 103 c-27 56 -600 1240 -1274 2632 l-1225 2530 -474 3
-474 2 -1158 -2392z"/>
<path d="M13960 5185 l0 -2615 500 0 500 0 0 1860 c0 1023 3 1860 8 1859 4 0
724 -837 1600 -1860 l1592 -1859 425 0 425 0 0 2615 0 2615 -505 0 -505 0 -2
-1805 -3 -1805 -1545 1805 -1545 1804 -472 1 -473 0 0 -2615z"/>
<path d="M22990 5185 l0 -2615 505 0 505 0 2 1867 3 1867 904 -1222 c722 -975
909 -1222 924 -1220 13 2 329 420 931 1231 l911 1227 3 -1875 2 -1875 505 0
505 0 0 2615 0 2615 -546 -2 -546 -3 -874 -1225 c-480 -674 -878 -1226 -883
-1228 -4 -1 -403 551 -886 1228 l-877 1230 -544 0 -544 0 0 -2615z"/>
<path d="M30240 5185 l0 -2615 505 0 505 0 0 2615 0 2615 -505 0 -505 0 0
-2615z"/>
<path d="M39223 6138 c3 -1476 5 -1675 19 -1768 45 -287 110 -508 213 -715
330 -671 938 -1049 1845 -1147 150 -16 633 -16 775 0 362 41 626 107 880 218
611 268 1023 795 1164 1489 56 278 54 206 58 1963 l4 1622 -505 0 -505 0 -4
-1632 -3 -1633 -22 -114 c-28 -144 -91 -334 -143 -431 -202 -375 -589 -602
-1104 -650 -512 -47 -968 84 -1262 363 -244 232 -373 546 -403 980 -5 73 -9
804 -10 1625 l0 1492 -500 0 -501 0 4 -1662z"/>
<path d="M45580 5185 l0 -2615 2165 0 2165 0 0 415 0 415 -1660 0 -1660 0 0
700 0 700 1455 0 1455 0 0 415 0 415 -1455 0 -1455 0 0 675 0 675 1640 0 1640
0 0 410 0 410 -2145 0 -2145 0 0 -2615z"/>
<path d="M51140 5185 l0 -2615 2025 0 2025 0 0 415 0 415 -1525 0 -1525 0 0
2200 0 2200 -500 0 -500 0 0 -2615z"/>
</g>
</svg>
